<svg width="18" height="14" viewBox="0 0 18 14" fill="none" xmlns="http://www.w3.org/2000/svg">
<path d="M9.19998 10.7502C7.22472 10.7502 5.62576 9.22132 5.47862 7.28382L2.74685 5.17263C2.38774 5.62315 2.05727 6.09945 1.7906 6.62028C1.73103 6.73812 1.69999 6.86832 1.69999 7.00036C1.69999 7.1324 1.73103 7.2626 1.7906 7.38044C3.20284 10.1359 5.99867 12.0002 9.19998 12.0002C9.90076 12.0002 10.5768 11.8961 11.2284 11.7278L9.87706 10.6823C9.65389 10.7254 9.42726 10.7481 9.19998 10.7502ZM17.3724 12.2633L14.4935 10.0383C15.368 9.30125 16.0872 8.3977 16.6094 7.38018C16.6689 7.26234 16.7 7.13214 16.7 7.0001C16.7 6.86806 16.6689 6.73786 16.6094 6.62002C15.1971 3.86455 12.4013 2.00023 9.19998 2.00023C7.85922 2.00186 6.54024 2.33939 5.36352 2.982L2.0505 0.421325C2.00729 0.387707 1.95789 0.362932 1.90511 0.348415C1.85233 0.333898 1.7972 0.329924 1.74289 0.336719C1.68857 0.343515 1.63612 0.360948 1.58854 0.388021C1.54097 0.415094 1.49919 0.451277 1.4656 0.494502L0.954403 1.15257C0.88659 1.23981 0.856204 1.35041 0.869927 1.46005C0.88365 1.56968 0.940358 1.66938 1.02758 1.73721L16.3495 13.5791C16.3927 13.6128 16.4421 13.6375 16.4948 13.652C16.5476 13.6666 16.6027 13.6705 16.6571 13.6637C16.7114 13.6569 16.7638 13.6395 16.8114 13.6124C16.859 13.5854 16.9008 13.5492 16.9344 13.506L17.4458 12.8479C17.5136 12.7606 17.5439 12.65 17.5302 12.5404C17.5164 12.4307 17.4596 12.331 17.3724 12.2633ZM12.588 8.56534L11.5646 7.77419C11.6507 7.52509 11.6965 7.26379 11.7 7.00023C11.7051 6.61436 11.6196 6.23268 11.4504 5.88584C11.2812 5.539 11.033 5.23668 10.7258 5.00315C10.4186 4.76963 10.0609 4.61141 9.6814 4.5412C9.30194 4.471 8.9113 4.49077 8.54086 4.59893C8.6979 4.81172 8.78284 5.06911 8.78331 5.33356C8.77942 5.42157 8.76598 5.50889 8.74321 5.59398L6.82628 4.11247C7.49216 3.55601 8.3322 3.25087 9.19998 3.25023C9.69251 3.24996 10.1803 3.34677 10.6354 3.53513C11.0905 3.72348 11.504 3.9997 11.8522 4.34797C12.2005 4.69624 12.4767 5.10975 12.6651 5.56484C12.8534 6.01994 12.9502 6.5077 12.95 7.00023C12.95 7.56351 12.8122 8.08851 12.588 8.56559V8.56534Z" fill="#9FA2B4"/>
</svg>
